<?xml version="1.0" encoding="UTF-8"?>
<!DOCTYPE svg PUBLIC "-//W3C//DTD SVG 1.1//EN" "http://www.w3.org/Graphics/SVG/1.1/DTD/svg11.dtd">
<!-- Creator: CorelDRAW 2017 -->
<svg xmlns="http://www.w3.org/2000/svg" xml:space="preserve" width="1.45538in" height="1.30807in" version="1.1" style="shape-rendering:geometricPrecision; text-rendering:geometricPrecision; image-rendering:optimizeQuality; fill-rule:evenodd; clip-rule:evenodd"
viewBox="0 0 290 260"
 xmlns:xlink="http://www.w3.org/1999/xlink">
 <defs>
  <style type="text/css">
   <![CDATA[
    .fil1 {fill:#031216}
    .fil0 {fill:#41C6CA}
   ]]>
  </style>
 </defs>
 <g id="Layer_x0020_1">
  <metadata id="CorelCorpID_0Corel-Layer"/>
  <path class="fil0" d="M217 25c-7,3 -8,7 -12,16 -7,14 -19,28 -16,39 2,8 11,12 20,8 2,-1 33,-40 28,-55 -2,-7 -10,-11 -19,-7z"/>
  <path class="fil0" d="M134 7c-5,6 -3,10 -3,20 0,15 -3,33 4,42 5,6 16,5 21,-3 1,-2 10,-51 -2,-61 -6,-5 -14,-5 -20,3z"/>
  <path class="fil0" d="M58 40c-1,8 2,10 7,19 8,14 13,31 24,34 8,2 16,-3 17,-13 0,-3 -16,-49 -32,-53 -7,-2 -15,2 -16,13z"/>
  <path class="fil0" d="M1 99c3,7 7,8 15,13 13,8 27,20 38,18 8,-2 13,-10 9,-20 -1,-2 -38,-35 -53,-31 -7,2 -12,9 -8,19z"/>
  <path class="fil0" d="M271 73c-7,2 -19,14 -24,17 -4,3 -3,2 -8,7 -21,19 -2,32 11,28 3,-1 27,-22 31,-25 18,-16 5,-32 -10,-27z"/>
  <path class="fil1" d="M201 178c-7,-8 -10,-19 -15,-27 -5,-8 -13,-15 -22,-20 -76,-39 -136,59 -84,109 16,16 36,18 64,19 24,0 59,2 82,0 35,-3 30,-70 6,-83 -12,-6 -20,0 -31,2z"/>
 </g>
</svg>
